<svg xmlns="http://www.w3.org/2000/svg" viewBox="0 0 68 70"><defs><style>.cls-1{fill:#fefefe;}.cls-2{fill:#c289fe;}.cls-3{fill:#d2a8fe;}.cls-4{fill:#c189fe;}</style></defs><g id="Слой_2" data-name="Слой 2"><g id="Слой_1-2" data-name="Слой 1"><path class="cls-1" d="M68,64.08V70H0V0H14.78c-.31,2.71-1.11,5.48-.76,8.1.19,1.37,2.38,3.41,3.68,3.42s3.7-2.1,3.72-3.32c.06-2.72-1.07-5.46-1.71-8.2H47.3c-.65,2.57-2,5.2-1.71,7.67.16,1.51,2.52,3.51,4.25,4,2.75.74,3.71-1.55,3.32-3.94C52.74,5.1,51.9,2.57,51.25,0H68V11.83a7.3,7.3,0,0,1-.94-.07c-2-4.84-5.64-6.21-10.46-5.5-.77,6-3.31,9.58-7,9.41C43.8,15.4,42.44,10.93,42,6.23H24.56c1,5.54-1.76,9-6.51,9.3-5.74.32-7.15-4.6-7.63-9.34-7,.27-9.31,2.36-9.33,8.7Q1,37.08,1.08,59.25c0,7.27,2.47,9.75,9.69,9.76,15.43,0,30.87-.09,46.3.06,4.34.05,7.67-1.22,10-4.94A7.72,7.72,0,0,1,68,64.08Z"/><path class="cls-2" d="M51.25,0c.65,2.57,1.49,5.1,1.91,7.71.39,2.39-.57,4.68-3.32,3.94-1.73-.47-4.09-2.47-4.25-4C45.34,5.2,46.65,2.57,47.3,0Z"/><path class="cls-2" d="M19.71,0c.64,2.74,1.77,5.48,1.71,8.2,0,1.22-2.42,3.34-3.72,3.32S14.21,9.47,14,8.1c-.35-2.62.45-5.39.76-8.1Z"/><path class="cls-3" d="M67.06,11.76a7.3,7.3,0,0,0,.94.07V64.08c-.32,0-.64,0-1,0Q67,37.95,67.06,11.76Z"/><path class="cls-4" d="M67.06,11.76q0,26.18,0,52.36c-2.3,3.73-5.63,5-10,4.95-15.43-.15-30.87,0-46.3-.06-7.22,0-9.68-2.49-9.69-9.76q0-22.18,0-44.36c0-6.34,2.29-8.43,9.33-8.7.48,4.74,1.89,9.66,7.63,9.34,4.75-.25,7.51-3.76,6.51-9.3H42c.48,4.7,1.84,9.17,7.62,9.44,3.71.17,6.25-3.46,7-9.41C61.42,5.55,65.09,6.92,67.06,11.76ZM5,22.16c0,12.88-.15,25.46.2,38,0,1.33,2.94,3.68,4.54,3.71,16.24.28,32.48.24,48.72.11C62,64,64.16,62.13,64,58.15c-.14-3.44,0-6.89,0-10.34V22.16Z"/><path class="cls-1" d="M5,22.16H64V47.81c0,3.45-.11,6.9,0,10.34.16,4-2,5.85-5.56,5.87-16.24.13-32.48.17-48.72-.11-1.6,0-4.5-2.38-4.54-3.71C4.83,47.62,5,35,5,22.16Zm28.9,14.32c5.72,0,11.44,0,17.16,0,2.44,0,4.15-.5,4.16-3.45s-1.65-3.5-4.12-3.49c-11.44,0-22.88.06-34.31,0-2.64,0-4.44,1.05-3.74,3.66a5.2,5.2,0,0,0,3.7,3.12C22.43,36.68,28.16,36.48,33.88,36.48Zm-.09,10.84c5.55,0,11.11,0,16.66,0,2.4,0,4.69.09,4.75-3.34s-2-3.6-4.52-3.59q-16.66.08-33.33,0c-2.6,0-4.57.36-4.51,3.6s2.34,3.36,4.77,3.34C23,47.3,28.39,47.32,33.79,47.32Zm-6.58,4c-3.77,0-7.55-.23-11.28.14-1.11.11-2.94,1.94-2.88,2.87.1,1.33,1.59,3.62,2.57,3.67,7.18.31,14.39.35,21.57,0,1.12-.05,2.44-2.47,3-4,.17-.48-1.94-2.39-3.14-2.53A86.5,86.5,0,0,0,27.21,51.29Z"/><path class="cls-4" d="M33.88,36.48c-5.72,0-11.45.2-17.15-.15A5.2,5.2,0,0,1,13,33.21c-.7-2.61,1.1-3.67,3.74-3.66,11.43.07,22.87.05,34.31,0,2.47,0,4.13.57,4.12,3.49S53.48,36.52,51,36.5C45.32,36.44,39.6,36.48,33.88,36.48Z"/><path class="cls-4" d="M33.79,47.32c-5.4,0-10.79,0-16.18,0-2.43,0-4.7,0-4.77-3.34s1.91-3.62,4.51-3.6q16.67.09,33.33,0c2.56,0,4.58.28,4.52,3.59s-2.35,3.35-4.75,3.34C44.9,47.31,39.34,47.32,33.79,47.32Z"/><path class="cls-2" d="M27.21,51.28a88.89,88.89,0,0,1,9.8.12c1.2.14,3.31,2.05,3.14,2.53-.52,1.56-1.84,4-3,4-7.18.36-14.39.32-21.57,0-1,0-2.47-2.34-2.57-3.67-.06-.93,1.77-2.76,2.88-2.87C19.66,51.06,23.44,51.29,27.21,51.28Z"/></g></g></svg>