<?xml version="1.0" encoding="utf-8"?>
<!-- Generator: Adobe Illustrator 24.1.2, SVG Export Plug-In . SVG Version: 6.00 Build 0)  -->
<svg version="1.1" id="Logo" xmlns="http://www.w3.org/2000/svg" xmlns:xlink="http://www.w3.org/1999/xlink" x="0px" y="0px"
	 viewBox="0 0 180 30" style="enable-background:new 0 0 180 30;" xml:space="preserve">
<style type="text/css">
	.st0{fill-rule:evenodd;clip-rule:evenodd;fill:#FFFFFF;}
</style>
<path class="st0" d="M25.7,4.3l1.1,0c0.3,0,0.6,0,1,0h1.5c0.4,0.1,0.7,0.5,0.8,1h0c0,0.1,0,0.2,0,0.2h0v0.1l-0.1,0v0.1l-1,0.9
	l-2.8,2.8h-4.3l-1,1l-0.2,0.2c-0.3,0.4-0.6,0.7-1,1l-1.3,1.4c-0.3,0.2-0.5,0.4-0.7,0.6l-2,2.1h-0.1l0,0.1l-0.2,0v0
	c-0.3,0-0.5,0-0.8-0.2l-0.2-0.2l-0.1,0l0-0.2h0v-0.1h0v-0.1h0v-0.5h0l0-0.2h0v-0.1l0.1,0v-0.1h0c0.1-0.1,0.1-0.1,0.1-0.2h0.1
	c0-0.1,0.1-0.2,0.2-0.2v-0.1h0.1v-0.1h0.1v-0.1h0.1v-0.1H15c0-0.1,0-0.1,0.1-0.1v-0.1h0.1v-0.1h0.1v-0.1h0.1v-0.1h0.1v-0.1h0.1
	c0-0.1,0-0.1,0.1-0.1v-0.1h0.1v-0.1h0.1v-0.1h0.1v-0.1H16v-0.1H16c0-0.1,0-0.1,0.1-0.1v-0.1h0.1v-0.1h0.1v-0.1h0.1v-0.1h0.1v-0.1
	h0.1c0-0.1,0-0.1,0.1-0.1v-0.1h0.1v-0.1h0.1c0.1-0.2,0.3-0.4,0.6-0.6v0l1.3-1.3c0.1-0.2,0.3-0.4,0.6-0.5V9.3h0.1V9.2h0.1V9.1h0.1
	c0-0.1,0-0.1,0.1-0.1V8.9h0.1V8.8h0.1V8.8h0.1V8.7H20V8.6c0.1,0,0.1,0,0.1-0.1h0.1V8.4h0.1V8.3h0.1V8.2h0.1c0.1-0.5,0.1-1,0-1.6V3.9
	c0.1-0.1,0.1-0.1,0.2-0.2c0.3-0.3,0.6-0.5,0.9-0.8l2-2l0.6-0.6h0.1c0,0,0-0.1,0-0.1h0.1c0,0,0-0.1,0-0.1C24.5,0,24.7,0,24.9,0v0H25
	v0h0.1c0,0,0,0.1,0,0.1h0.1v0l0.2,0.2v0.1h0v0.1h0v0.1h0v0.7c0.1,0.2,0,0.7,0,0.9h0L25.7,4.3L25.7,4.3z M18.3,6.1L18,6v0l-0.2,0v0
	h-0.1v0l-0.2,0v0h-0.1v0l-0.3,0v0l-0.3,0v0l-1.6-0.3h-0.5v0c-0.4,0-0.9,0-1.3,0h-0.5v0h-0.3v0h-0.3v0H12v0h-0.2v0h-0.2v0l-0.4,0
	L9.8,6v0l-0.2,0v0H9.6v0H9.5v0L9.3,6.3v0H9.2v0H9.1v0L8.8,6.5l0,0.1L8.6,6.6l0,0.1l-0.2,0l0,0.1l-0.2,0v0L8,7L8,7H7.9L7.8,7.2H7.8
	l0,0.1H7.6L7.6,7.4H7.5L7.4,7.5H7.3L7.2,7.6H7.1L6.9,7.9H6.8L6.6,8.2L5.9,8.8v0.1L5.7,9.1v0.1L5.5,9.3v0.1L5.4,9.5v0.1L5.3,9.6v0.1
	l-0.1,0v0.1L5.1,9.9V10L5,10v0.1l-0.1,0l0,0.2l-0.1,0l0,0.2l-0.1,0l-0.1,0.2l-0.1,0v0.1h0V11h0v0.1h0v0.1h0v0.1h0l-0.1,0.2h0v0.1h0
	v0.1h0v0.1h0v0.1h0V12h0V12h0l0,0.2h0v0.1h0l-0.4,1.4l-0.1,0.7h0v0.3h0v0.5h0c0,0.4,0,0.9,0,1.3v0.5h0v0.3h0v0.3h0V18h0v0.2h0v0.2h0
	v0.2h0v0.2h0l0,0.3h0v0.1h0v0.2h0v0.1h0v0.1h0v0.1h0v0.1h0l0,0.2h0V20h0v0.1h0l0,0.2h0v0.1h0v0.1h0l0.1,0.2h0v0.1h0v0.1h0l0.1,0.2
	l0.1,0l0.1,0.2l0.1,0l0,0.2l0.1,0l0,0.2l0.1,0V22h0l0,0.1l0.1,0v0.1l0.1,0.1v0.1l0.1,0.1v0.1l0.1,0.1v0.1l0.2,0.1v0.1l0.2,0.2v0.1
	l0.7,0.6l0.3,0.3h0.1l0.2,0.2h0.1l0.1,0.2h0.1l0.1,0.1h0.1l0.1,0.1h0.1l0.1,0.1h0.1l0,0.1H8l0,0.1l0.1,0v0l0.2,0l0,0.1l0.2,0l0,0.1
	l0.2,0.1l0,0.1h0.1v0H9v0h0.1v0h0.1v0h0.1v0h0.1v0l0.2,0.1v0l0.2,0v0h0.1v0H10v0h0.1v0l0.2,0v0h0.1v0l0.4,0.1v0h0.2v0H11v0l0.3,0v0
	h0.2v0l0.4,0v0h0.2v0h0.2v0h0.3v0l0.8,0v0c0.4,0,0.9,0,1.3,0l0.8,0v0h0.3v0H16v0h0.2v0h0.2v0l0.4,0v0h0.1v0H17v0h0.1v0h0.2v0h0.1v0
	h0.1v0h0.1v0h0.1v0l0.2,0v0H18v0h0.1v0l0.2,0v0h0.1v0h0.1v0l0.2-0.1v0h0.1v0h0.1v0l0.2-0.1l0-0.1l0.2-0.1l0-0.1l0.2,0l0-0.1l0.2,0
	l0-0.1H20v0l0.1,0c0,0,0-0.1,0-0.1h0.1c0,0,0-0.1,0-0.1l0.1,0l0.1-0.1h0.1l0.1-0.1h0.1l0.1-0.2h0.1l0.2-0.2h0.1l0.4-0.4l0.6-0.5
	v-0.1l0.2-0.2v-0.1l0.2-0.1v-0.1l0.1-0.1v-0.1l0.1-0.1c0,0,0-0.1,0-0.1l0.1,0v-0.1l0.1,0c0,0,0-0.1,0-0.1h0v-0.1l0.1,0
	c0-0.1,0-0.1,0-0.2l0.1,0c0-0.1,0-0.1,0-0.2l0.1,0l0.1-0.2l0.1,0v-0.1h0V21h0v-0.1h0v-0.1h0v-0.1h0v-0.1h0c0-0.1,0.1-0.2,0.1-0.2h0
	v-0.1h0c0-0.1,0-0.1,0-0.2h0c0.2-0.5,0.3-1,0.5-1.4c0-0.1,0-0.2,0-0.4h0v-0.2h0V18h0v-0.2h0c0-0.2,0.1-0.5,0.1-0.7v-0.4h0
	c0-0.4,0-0.9,0-1.3c0-0.3,0-0.6,0-0.8h0v-0.3h0V14h0v-0.2h0c0-0.1,0-0.2,0-0.4h0v-0.2h0c0-0.1,0-0.2,0-0.3h0v-0.1h0v-0.2h0v-0.1h0
	v-0.1h0v-0.1h0v-0.1h0c0-0.1,0-0.2,0-0.2h0l-0.1-0.4c0.9,0.1,1.7,0,2.6-0.1l0.5-0.1v0l0.1,0v0c0.1,0,0.1,0,0.1,0
	c0.1,0.2,0.2,0.4,0.2,0.6c0.2,0.5,0.3,1,0.4,1.5c0,0.2,0,0.3,0,0.5h0v0.3h0v0.4h0v0.5c0.1,0.5,0.1,1,0,1.5v0.5h0v0.4h0V18h0v0.3
	c-0.1,0.2-0.1,0.5-0.2,0.6v0.2h0v0.2h0v0.2h0v0.2h0v0.2h0v0.2h0V20h0v0.1h0v0.1h0c0,0.1,0,0.2,0,0.3h0v0.1h0c0,0.1-0.1,0.2-0.1,0.4
	h0V21h0v0.1h0c0,0.1,0,0.1,0,0.2h0v0.1h0v0.1h0c0,0.1-0.1,0.2-0.1,0.2h0v0.1h0V22h0l-0.1,0.2h0v0.1h0c0,0.1-0.1,0.2-0.1,0.2l-0.1,0
	v0.1h0v0.1h0v0.1h0v0.1l-0.1,0c0,0.1-0.1,0.2-0.1,0.2l-0.1,0v0.1l-0.1,0c0,0.1,0,0.1,0,0.2l-0.1,0v0.1l-0.1,0v0.1l-0.1,0v0.1h0
	c0,0,0,0.1,0,0.1l-0.1,0v0.1l-0.1,0.1v0.1l-0.1,0.1v0.1l-0.1,0.1v0.1l-0.2,0.1v0.1l-0.2,0.1c-0.3,0.4-0.7,0.8-1,1.1l-0.4,0.4h-0.1
	L23,26.7h-0.1l-0.2,0.2h-0.1l-0.1,0.2h-0.1l-0.1,0.1h-0.1c0,0-0.1,0.1-0.1,0.1h-0.1l-0.1,0.1H22c0,0,0,0.1,0,0.1l-0.1,0v0h-0.1
	c0,0,0,0.1,0,0.1h-0.1l0,0.1h-0.1l0,0.1l-0.2,0c0,0,0,0.1,0,0.1l-0.1,0v0h-0.1v0H21v0h-0.1l0,0.1h-0.1v0h-0.1v0h-0.1v0h-0.1
	c0,0,0,0.1,0,0.1l-0.2,0.1v0h-0.1v0L20,28.6v0h-0.1v0h-0.1v0l-0.2,0.1v0h-0.1v0h-0.1v0h-0.1v0h-0.1v0H19v0h-0.1v0l-0.4,0.1v0h-0.1v0
	l-0.3,0v0h-0.1v0H18v0h-0.1v0h-0.2v0h-0.2v0h-0.2v0h-0.2v0h-0.2v0h-0.2v0h-0.2v0h-0.2v0h-0.2v0l-0.6,0v0L14.1,30l-1.4,0v0h-0.4v0H12
	l-1.9-0.4c-0.9-0.3-1.9-0.7-2.7-1.2H7.3v0H7.3v0H7.2v0H7.1l0-0.1L6.8,28v0l-0.1,0l0-0.1l-0.2,0v0l-0.1,0l0-0.1H6.3l0-0.1H6.1v0
	l-0.1,0l0-0.1H5.9l-0.1-0.1H5.7l-0.1-0.1H5.6l-0.1-0.1H5.4l-0.1-0.2H5.2l-0.1-0.1h0l0-0.1H5l-0.2-0.2H4.7L4.2,26l-0.7-0.6v-0.1
	L3.3,25V25l-0.2-0.2v-0.1l-0.2-0.1v-0.1l-0.1-0.1v-0.1l-0.1-0.1v-0.1l-0.1-0.1V24l-0.1,0l0-0.1h0v-0.1l-0.1,0v-0.1l-0.1,0v-0.1
	l-0.1,0l0-0.2l-0.1,0l0-0.1h0L1.9,23l-0.1,0v-0.1h0v-0.1h0v-0.1h0v-0.1c-0.5-0.9-0.9-1.8-1.2-2.7l0-0.3h0v-0.2h0v-0.2h0v-0.2h0v-0.2
	h0l0-0.4h0v-0.2h0V18h0l0-0.7h0v-0.5c-0.1-0.5-0.1-1,0-1.5v-0.5h0l0-0.7h0v-0.3c0.1-0.2,0.1-0.5,0.2-0.6v-0.2h0v-0.2h0v-0.2h0v-0.2
	h0v-0.2h0v-0.2h0V12h0v-0.1h0v-0.1h0v-0.2h0v-0.1h0v-0.1h0L0.9,11h0V11h0v-0.1h0v-0.1h0v-0.1h0v-0.1h0v-0.1h0l0.1-0.2h0v-0.1h0V10h0
	l0.1-0.2h0V9.7h0l0.1-0.2l0.1,0V9.3h0V9.2h0V9.2h0V9.1l0.1,0L2,8.8h0l0-0.1l0.1,0l0-0.2h0l0-0.1l0.1,0V8.2h0l0-0.1l0.1,0V8l0.1-0.1
	V7.8l0.1,0V7.7l0.1-0.1V7.6l0.1-0.1V7.4l0.2-0.1V7.2l0.1-0.1v0l0.1,0V7l0.2-0.2V6.7l0.6-0.6l0.6-0.6h0.1L5,5.3h0.1l0.2-0.2h0.1
	l0.1-0.2h0.1l0.1-0.1h0.1l0.1-0.1h0.1l0-0.1h0.1L6,4.5h0.1l0-0.1h0.1l0-0.1h0.1l0-0.1h0.1l0-0.1l0.2,0l0-0.1l0.1,0v0h0.1v0H7v0h0.1
	l0-0.1h0.1v0h0.1v0h0.1v0h0.1l0-0.1h0.1v0l0.2-0.1v0L8,3.4v0h0.1v0h0.1v0l0.2-0.1v0h0.1v0h0.1v0h0.1v0h0.1v0H9v0h0.1v0l0.4-0.1v0
	h0.1v0l0.3,0v0h0.1v0H10v0h0.1v0l0.3,0v0h0.2v0h0.2v0h0.2v0h0.2v0l0.4,0v0h0.2v0h0.3v0h0.3v0h0.4v0h0.6c0.5-0.1,1-0.1,1.5,0h0.5v0
	h0.4v0H16v0h0.3v0l0.4,0v0l0.4,0v0l0.3,0v0h0.2v0h0.2v0h0.2v0H18v0h0.1v0h0.1v0h0.2v0h0.1v0l0.2,0v0c-0.1,0.1-0.1,0.2-0.2,0.2v0.2h0
	v0.2h0v0.2h0v0.2h0v0.2h0L18.3,6.1L18.3,6.1z M21.8,12.7l0.1,0.4h0v0.1h0v0.1h0v0.1h0c0,0.1,0,0.2,0,0.3h0l0.2,1.2v0.4h0V16
	c0,0.5,0,1-0.2,1.5c0,0.1,0,0.3,0,0.4h0c0,0.1,0,0.2,0,0.3h0c0,0.1,0,0.2,0,0.3h0v0.1h0v0.1h0v0.1h0V19h0v0.1h0v0.1h0v0.1h0
	c0,0.1,0,0.1,0,0.2h0v0.1h0v0.1h0c0,0.1,0,0.1,0,0.2h0c0,0.1,0,0.1,0,0.2l-0.1,0c0,0.1-0.1,0.2-0.1,0.2l-0.1,0c0,0.1,0,0.1,0,0.2h0
	c0,0,0,0.1,0,0.1l-0.1,0v0.1h0l0,0.1l-0.1,0v0.1L20.7,21v0.1l-0.1,0.1v0.1l-0.2,0.2v0.1L20,21.8l-0.5,0.6h-0.1l-0.2,0.2h-0.1
	l-0.1,0.1H19l-0.1,0.1h-0.1l0,0.1l-0.1,0v0h-0.1l0,0.1l-0.1,0v0l-0.2,0l0,0.1L18,23.4l0,0.1l-0.2,0v0l-0.2,0v0h-0.1v0h-0.1v0l-0.2,0
	v0h-0.1v0h-0.1v0l-0.2,0v0h-0.1v0h-0.1v0h-0.1v0l-0.3,0v0l-0.3,0v0h-0.2v0h-0.2v0h-0.2v0H15v0h-0.4c-0.6,0.1-1.2,0.1-1.8-0.1h-0.2
	l-1.4-0.4v0H11v0h-0.1v0h-0.1v0h-0.1v0l-0.2,0v0h-0.1v0l-0.4-0.1l0-0.1H10v0H9.9v0H9.8v0H9.8l0-0.1l-0.2,0l0-0.1H9.4l0-0.1H9.3v0
	l-0.1,0l0-0.1H9.1L9,22.7H8.9l-0.1-0.1H8.8l-0.2-0.2H8.5l-0.7-0.7l-0.2-0.2v-0.1l-0.2-0.2v-0.1l-0.1-0.1V21l-0.1-0.1v-0.1l-0.1,0
	v-0.1l-0.1,0v-0.1l-0.1,0v-0.1l-0.1,0l0-0.2l-0.1,0v-0.1h0v-0.1h0V20h0v-0.1l-0.1,0l-0.1-0.4h0v-0.1h0l0-0.2h0v-0.1h0v-0.1h0V19h0
	v-0.1h0v-0.1h0v-0.1h0v-0.1h0v-0.2h0v-0.1h0L5.7,17v-0.4h0c0-0.4,0-0.7,0-1.1V15c0.1-0.3,0.1-0.7,0.2-0.9v-0.2h0v-0.2h0v-0.1h0v-0.2
	h0v-0.1h0v-0.1h0v-0.1h0V13h0v-0.1h0v-0.1h0v-0.1h0l0-0.2h0v-0.1h0v-0.1h0l0-0.2h0v-0.1l0.1,0V12h0v-0.1h0v-0.1h0v-0.1l0.1,0l0-0.2
	h0l0-0.1l0.1,0v-0.1h0l0-0.1l0.1,0v-0.1L7.3,11v-0.1l0.1-0.1v-0.1l0.2-0.2v-0.1l0.5-0.4l0.4-0.5h0.1l0.2-0.2h0.1l0.1-0.1H9l0.1-0.1
	h0.1l0-0.1l0.1,0v0h0.1l0-0.1l0.1,0v0l0.2,0l0-0.1L10,8.6v0h0.1l0-0.1l0.4-0.1v0h0.1v0l0.2,0v0h0.1v0h0.1v0h0.1v0h0.1v0h0.1v0h0.1v0
	h0.1v0l0.3,0v0h0.2v0h0.2v0h0.2v0h0.2v0h0.2v0H13v0h0.4c0.4-0.1,0.7-0.1,1.1,0v0H15v0h0.3v0h0.2v0h0.2v0l0.4,0v0h0.2v0l0.3,0v0h0.1
	v0h0.1v0h0.1v0H17v0c0.1,0,0.3,0.1,0.4,0.2h0c-0.1,0.1-0.1,0.2-0.2,0.2L16.6,9l-0.4,0.5L16,9.7v0.1l-0.1,0l0,0.1L15.6,10l-0.2,0.3
	h-0.1l-0.5,0.5h-0.4c-0.3-0.1-0.6-0.1-0.9,0v0h-0.4v0H13v0h-0.2v0h-0.2v0h-0.1v0h-0.2v0h-0.1v0l-0.2,0v0l-0.2,0v0h-0.1v0h-0.1v0
	h-0.1l0,0.1l-0.2,0.1l0,0.1l-0.2,0L11,11.8H11l0,0.1h-0.1L10.7,12c-0.7,0.6-1.3,1.4-1.6,2.2l0,0.3h0v0.1h0v0.2h0V15
	c-0.2,0.7-0.2,1.3,0,2l0,0.4h0v0.1h0l0,0.3h0v0.1h0V18h0l0,0.2h0l0.1,0.4l0.1,0l0,0.2l0.1,0l0,0.2L9.8,19l0,0.1h0v0.1l0.2,0.1
	c0.7,0.9,1.7,1.5,2.8,1.8H13v0h0.2v0h0.4v0c0.3,0,0.6,0,0.9,0h0.4v0H15v0h0.2v0h0.2v0h0.1v0h0.2v0h0.1v0l0.2,0v0l0.2,0v0l0.4-0.1
	l0-0.1l0.2,0l0-0.1h0.1v0h0.1l0.1-0.1H17l0-0.1h0.1l0.1-0.2h0.1l0.4-0.4l0.3-0.2v-0.1l0.2-0.1v-0.1l0.1,0V19l0.1-0.1v-0.1h0v-0.1
	l0.1,0l0-0.2l0.1,0v-0.1h0l0-0.2h0v-0.1h0l0-0.2h0l0-0.2h0l0-0.3h0v-0.1h0v-0.2h0V17h0v-0.2h0v-0.4c0.1-0.4,0.1-0.8,0-1.2l0.3-0.2
	l0-0.1l0.5-0.4v-0.1h0l0.2-0.2h0.1c0,0,0-0.1,0-0.1h0l0.4-0.4h0.1l0.1-0.1l0.1,0v-0.1l0.2-0.2c0,0,0-0.1,0-0.1h0.1l0.1-0.1l0.1,0
	v-0.1h0l0.2-0.2L21.8,12.7L21.8,12.7z"/>
<image style="overflow:visible;enable-background:new    ;" width="140" height="26" id="Dart_service_manager" xlink:href="AD4FF5A2.png"  transform="matrix(1 0 0 1 40 2)">
</image>
</svg>
