<svg xmlns="http://www.w3.org/2000/svg" viewBox="0 0 68 71"><defs><style>.cls-1{opacity:0.5;}.cls-2{fill:#fefbfe;}.cls-3{fill:#fe86fe;}.cls-4{fill:#fe83fe;}.cls-5{fill:#fe84fe;}.cls-6{fill:#fe8afe;}.cls-7{fill:#fe89fe;}.cls-8{fill:#fe8ffe;}.cls-9{fill:#fef6fe;}.cls-10{fill:#fef7fe;}</style></defs><g id="Слой_2" data-name="Слой 2"><g id="Слой_1-2" data-name="Слой 1"><g class="cls-1"><path class="cls-2" d="M38.38,0H68V71H0V0H35.42V10.3l-1.46,0L32.22,1.73c-7.51,3.55-9.11,10.8-11.44,17.48-.25.72,1.13,2.82,2,3,9,1.79,17.91,2.73,27,.43C52,22.06,54,21.38,53,19,50.46,12.42,49,5,41,1.62l-1.14,8-1.5-.12ZM15.65,59.25l-1-.78L14.4,59l1.27.19c-.42,1.55-.74,3.15-1.28,4.66-1.4,3.93-.72,5.11,3.43,5.2,6.05.12,12.11.08,18.17.1,2.33,0,4.66,0,7,0l.25-1.41-17-10.37C20,53.55,20,53.55,15.65,59.25ZM49,67.9c5-1,9.5-1.91,14-2.68,3.56-.6,4.9-2,3.2-5.7s-3-7.62-4.39-11.5C59.74,42,54,41.17,49.1,40.29c-1.76-.32-4.37,3.43-6.42,5.49-1,1-1.51,2.56-2.47,3.66-2.29,2.6-4.86,2.48-6.9-.33-1.54-2.13-2.84-4.43-4.37-6.57-2.34-3.26-12.48-2.19-14.08,1.51-.26.61.11,1.53.28,2.28.91,3.94,4.3,4.34,7.33,5.92,8.25,4.34,16,9.66,23.94,14.55A16.59,16.59,0,0,0,49,67.9ZM36.53,42.37c6.18-.92,15.7-10.33,15.73-16,0-.32.1-.72,0-1-.32-.51-.71-1.21-1.19-1.33a1.81,1.81,0,0,0-1.51.75c-1.52,2.6-3,5.23-4.35,7.9-3.45,6.72-11.6,7.73-15.6,1.8-1.87-2.77-3.33-5.81-5.09-8.65A10.12,10.12,0,0,0,22.32,24c-.32,1.09-1.26,2.53-.86,3.2,2.21,3.77,4.35,7.7,7.29,10.86C30.67,40.13,33.89,41,36.53,42.37ZM13.69,52.62c-.54-6.67-5.4-6.24-8.8-7.46-.79-.28-2.93,1.08-3.19,2s.66,3.33,1.49,3.56A91.66,91.66,0,0,0,13.69,52.62Zm-1,8.52L10.19,55.4,7.08,59.88a.79.79,0,0,0-.14.47c0,1.29-.26,2.77.28,3.81.29.57,2.36.9,3,.45C11.3,63.85,11.87,62.39,12.71,61.14Z"/><path class="cls-3" d="M38.38,0V9.49l1.5.12,1.14-8C49,5,50.46,12.42,53,19c.94,2.4-1,3.08-3.25,3.66-9.07,2.3-18,1.36-27-.43-.88-.18-2.26-2.28-2-3,2.33-6.68,3.93-13.93,11.44-17.48L34,10.34l1.46,0V0Zm5.73,6.81-1.69.4a72.83,72.83,0,0,0-1,7.6c0,1.26.47,3.44,1.18,3.65a5.94,5.94,0,0,0,4.6-.65c.82-.58,1.18-2.8.76-3.91A56.77,56.77,0,0,0,44.11,6.81Zm-13,.49-1.71-.51c-1.3,2.68-2.94,5.26-3.8,8.07s1,3.69,3.59,3.92c2.73.25,3.55-1,3.18-3.43C32,12.67,31.56,10,31.14,7.3Z"/><path class="cls-4" d="M49,67.9a16.59,16.59,0,0,1-2.63-1.1c-8-4.89-15.69-10.21-23.94-14.55-3-1.58-6.42-2-7.33-5.92-.17-.75-.54-1.67-.28-2.28,1.6-3.7,11.74-4.77,14.08-1.51,1.53,2.14,2.83,4.44,4.37,6.57,2,2.81,4.61,2.93,6.9.33,1-1.1,1.45-2.63,2.47-3.66,2-2.06,4.66-5.81,6.42-5.49C54,41.17,59.74,42,61.86,48c1.35,3.88,2.68,7.78,4.39,11.5s.36,5.1-3.2,5.7C58.54,66,54.05,66.94,49,67.9Z"/><path class="cls-5" d="M15.65,59.25c4.3-5.7,4.3-5.7,10.61-1.84l17,10.37L43,69.19c-2.33,0-4.66,0-7,0-6.06,0-12.12,0-18.17-.1-4.15-.09-4.83-1.27-3.43-5.2.54-1.51.86-3.11,1.28-4.66Z"/><path class="cls-6" d="M36.53,42.37c-2.64-1.39-5.86-2.24-7.78-4.3-2.94-3.16-5.08-7.09-7.29-10.86-.4-.67.54-2.11.86-3.2a10.12,10.12,0,0,1,2.15,1.89c1.76,2.84,3.22,5.88,5.09,8.65,4,5.93,12.15,4.92,15.6-1.8,1.37-2.67,2.83-5.3,4.35-7.9A1.81,1.81,0,0,1,51,24.1c.48.12.87.82,1.19,1.33.15.24,0,.64,0,1C52.23,32,42.71,41.45,36.53,42.37Z"/><path class="cls-7" d="M13.69,52.62a91.66,91.66,0,0,1-10.5-1.88c-.83-.23-1.77-2.53-1.49-3.56s2.4-2.3,3.19-2C8.29,46.38,13.15,46,13.69,52.62Z"/><path class="cls-8" d="M12.71,61.14c-.84,1.25-1.41,2.71-2.49,3.47-.64.45-2.71.12-3-.45-.54-1-.25-2.52-.28-3.81a.79.79,0,0,1,.14-.47l3.11-4.48Z"/><path class="cls-5" d="M15.67,59.23,14.4,59l.29-.57,1,.78Z"/><path class="cls-9" d="M44.11,6.81A56.77,56.77,0,0,1,48,13.9c.42,1.11.06,3.33-.76,3.91a5.94,5.94,0,0,1-4.6.65c-.71-.21-1.23-2.39-1.18-3.65a72.83,72.83,0,0,1,1-7.6Z"/><path class="cls-10" d="M31.14,7.3c.42,2.69.86,5.37,1.26,8.05.37,2.46-.45,3.68-3.18,3.43-2.55-.23-4.42-1.25-3.59-3.92s2.5-5.39,3.8-8.07Z"/></g></g></g></svg>